<?xml version="1.0" encoding="UTF-8" standalone="no"?>
<!DOCTYPE svg PUBLIC "-//W3C//DTD SVG 1.1//EN"
 "http://www.w3.org/Graphics/SVG/1.1/DTD/svg11.dtd">
<!-- Generated by graphviz version 2.38.0 (20140413.2041)
 -->
<!-- Title: md_stm32f4_disco.h Pages: 1 -->
<svg width="522pt" height="252pt"
 viewBox="0.00 0.00 522.00 252.00" xmlns="http://www.w3.org/2000/svg" xmlns:xlink="http://www.w3.org/1999/xlink">
<g id="graph0" class="graph" transform="scale(1 1) rotate(0) translate(4 248)">
<title>md_stm32f4_disco.h</title>
<polygon fill="white" stroke="none" points="-4,4 -4,-248 518,-248 518,4 -4,4"/>
<!-- Node1 -->
<g id="node1" class="node"><title>Node1</title>
<polygon fill="#bfbfbf" stroke="black" points="82,-224.5 82,-243.5 189,-243.5 189,-224.5 82,-224.5"/>
<text text-anchor="middle" x="135.5" y="-231.5" font-family="Helvetica,sans-Serif" font-size="10.00">md_stm32f4_disco.h</text>
</g>
<!-- Node2 -->
<g id="node2" class="node"><title>Node2</title>
<g id="a_node2"><a xlink:href="a00032.html" target="_top" xlink:title="DESCRIPTION. ">
<polygon fill="white" stroke="black" points="0,-168.5 0,-187.5 107,-187.5 107,-168.5 0,-168.5"/>
<text text-anchor="middle" x="53.5" y="-175.5" font-family="Helvetica,sans-Serif" font-size="10.00">md_stm32f4_disco.c</text>
</a>
</g>
</g>
<!-- Node1&#45;&gt;Node2 -->
<g id="edge1" class="edge"><title>Node1&#45;&gt;Node2</title>
<path fill="none" stroke="midnightblue" d="M113.667,-218.622C98.6871,-208.757 79.3025,-195.992 66.642,-187.655"/>
<polygon fill="midnightblue" stroke="midnightblue" points="112.049,-221.747 122.325,-224.324 115.899,-215.901 112.049,-221.747"/>
</g>
<!-- Node3 -->
<g id="node3" class="node"><title>Node3</title>
<g id="a_node3"><a xlink:href="a00025.html" target="_top" xlink:title="Main header definition. ">
<polygon fill="white" stroke="black" points="318.5,-168.5 318.5,-187.5 364.5,-187.5 364.5,-168.5 318.5,-168.5"/>
<text text-anchor="middle" x="341.5" y="-175.5" font-family="Helvetica,sans-Serif" font-size="10.00">main.h</text>
</a>
</g>
</g>
<!-- Node1&#45;&gt;Node3 -->
<g id="edge2" class="edge"><title>Node1&#45;&gt;Node3</title>
<path fill="none" stroke="midnightblue" d="M177.927,-221.878C220.435,-210.735 284.295,-193.995 318.281,-185.086"/>
<polygon fill="midnightblue" stroke="midnightblue" points="176.927,-218.522 168.141,-224.444 178.702,-225.293 176.927,-218.522"/>
</g>
<!-- Node7 -->
<g id="node7" class="node"><title>Node7</title>
<g id="a_node7"><a xlink:href="a00022_source.html" target="_top" xlink:title="irq_callbacks.c">
<polygon fill="white" stroke="black" points="170.5,-0.5 170.5,-19.5 252.5,-19.5 252.5,-0.5 170.5,-0.5"/>
<text text-anchor="middle" x="211.5" y="-7.5" font-family="Helvetica,sans-Serif" font-size="10.00">irq_callbacks.c</text>
</a>
</g>
</g>
<!-- Node1&#45;&gt;Node7 -->
<g id="edge17" class="edge"><title>Node1&#45;&gt;Node7</title>
<path fill="none" stroke="midnightblue" d="M138.064,-214.054C143.042,-180.849 155.765,-110.494 180.5,-56 186.695,-42.351 197.052,-28.4086 204.073,-19.7341"/>
<polygon fill="midnightblue" stroke="midnightblue" points="134.569,-213.768 136.619,-224.162 141.499,-214.758 134.569,-213.768"/>
</g>
<!-- Node4 -->
<g id="node4" class="node"><title>Node4</title>
<g id="a_node4"><a xlink:href="a00014.html" target="_top" xlink:title="Provides DMA related configuration and access functions for ADC and DAC. ">
<polygon fill="white" stroke="black" points="403.5,-112.5 403.5,-131.5 489.5,-131.5 489.5,-112.5 403.5,-112.5"/>
<text text-anchor="middle" x="446.5" y="-119.5" font-family="Helvetica,sans-Serif" font-size="10.00">adc_dac_dma.h</text>
</a>
</g>
</g>
<!-- Node3&#45;&gt;Node4 -->
<g id="edge3" class="edge"><title>Node3&#45;&gt;Node4</title>
<path fill="none" stroke="midnightblue" d="M362.4,-163.177C380.456,-153.241 406.201,-140.149 424.562,-131.655"/>
<polygon fill="midnightblue" stroke="midnightblue" points="360.253,-160.369 353.255,-168.324 363.687,-166.469 360.253,-160.369"/>
</g>
<!-- Node3&#45;&gt;Node7 -->
<g id="edge14" class="edge"><title>Node3&#45;&gt;Node7</title>
<path fill="none" stroke="midnightblue" d="M308.149,-177.54C272.957,-176.09 218.999,-167.684 192.5,-132 166.638,-97.1732 194.059,-41.0154 206.265,-19.6383"/>
<polygon fill="midnightblue" stroke="midnightblue" points="308.335,-181.045 318.417,-177.789 308.505,-174.048 308.335,-181.045"/>
</g>
<!-- Node8 -->
<g id="node8" class="node"><title>Node8</title>
<g id="a_node8"><a xlink:href="a00023_source.html" target="_top" xlink:title="irq_callbacks.h">
<polygon fill="white" stroke="black" points="244.5,-56.5 244.5,-75.5 326.5,-75.5 326.5,-56.5 244.5,-56.5"/>
<text text-anchor="middle" x="285.5" y="-63.5" font-family="Helvetica,sans-Serif" font-size="10.00">irq_callbacks.h</text>
</a>
</g>
</g>
<!-- Node3&#45;&gt;Node8 -->
<g id="edge13" class="edge"><title>Node3&#45;&gt;Node8</title>
<path fill="none" stroke="midnightblue" d="M351.633,-159.231C357.962,-145.601 363.522,-126.694 355.5,-112 345.877,-94.374 326.067,-82.622 309.969,-75.5617"/>
<polygon fill="midnightblue" stroke="midnightblue" points="348.341,-157.978 346.857,-168.469 354.559,-161.194 348.341,-157.978"/>
</g>
<!-- Node10 -->
<g id="node10" class="node"><title>Node10</title>
<g id="a_node10"><a xlink:href="a00024.html" target="_top" xlink:title="Main source implementation (29&#45;04&#45;2015) ">
<polygon fill="white" stroke="black" points="201.5,-112.5 201.5,-131.5 247.5,-131.5 247.5,-112.5 201.5,-112.5"/>
<text text-anchor="middle" x="224.5" y="-119.5" font-family="Helvetica,sans-Serif" font-size="10.00">main.c</text>
</a>
</g>
</g>
<!-- Node3&#45;&gt;Node10 -->
<g id="edge15" class="edge"><title>Node3&#45;&gt;Node10</title>
<path fill="none" stroke="midnightblue" d="M313.836,-164.232C291.951,-154.131 262.003,-140.309 242.952,-131.516"/>
<polygon fill="midnightblue" stroke="midnightblue" points="312.415,-167.431 322.961,-168.444 315.348,-161.075 312.415,-167.431"/>
</g>
<!-- Node11 -->
<g id="node11" class="node"><title>Node11</title>
<g id="a_node11"><a xlink:href="a00051.html" target="_top" xlink:title="stm32f4xx_it.c">
<polygon fill="white" stroke="black" points="266,-112.5 266,-131.5 347,-131.5 347,-112.5 266,-112.5"/>
<text text-anchor="middle" x="306.5" y="-119.5" font-family="Helvetica,sans-Serif" font-size="10.00">stm32f4xx_it.c</text>
</a>
</g>
</g>
<!-- Node3&#45;&gt;Node11 -->
<g id="edge16" class="edge"><title>Node3&#45;&gt;Node11</title>
<path fill="none" stroke="midnightblue" d="M330.2,-159.566C324.178,-150.275 317.031,-139.248 312.172,-131.751"/>
<polygon fill="midnightblue" stroke="midnightblue" points="327.344,-161.595 335.72,-168.083 333.219,-157.788 327.344,-161.595"/>
</g>
<!-- Node4&#45;&gt;Node3 -->
<g id="edge9" class="edge"><title>Node4&#45;&gt;Node3</title>
<path fill="none" stroke="midnightblue" d="M425.854,-136.683C407.717,-146.675 381.687,-159.912 363.226,-168.444"/>
<polygon fill="midnightblue" stroke="midnightblue" points="428.027,-139.476 435.02,-131.516 424.59,-133.378 428.027,-139.476"/>
</g>
<!-- Node5 -->
<g id="node5" class="node"><title>Node5</title>
<g id="a_node5"><a xlink:href="a00012.html" target="_top" xlink:title="Controlling beam and primary actuators. ">
<polygon fill="white" stroke="black" points="449,-56.5 449,-75.5 514,-75.5 514,-56.5 449,-56.5"/>
<text text-anchor="middle" x="481.5" y="-63.5" font-family="Helvetica,sans-Serif" font-size="10.00">actuators.h</text>
</a>
</g>
</g>
<!-- Node4&#45;&gt;Node5 -->
<g id="edge4" class="edge"><title>Node4&#45;&gt;Node5</title>
<path fill="none" stroke="midnightblue" d="M451.771,-102.983C456.986,-93.8168 464.362,-83.0922 470.697,-75.7511"/>
<polygon fill="midnightblue" stroke="midnightblue" points="448.554,-101.587 447.113,-112.083 454.785,-104.776 448.554,-101.587"/>
</g>
<!-- Node4&#45;&gt;Node8 -->
<g id="edge10" class="edge"><title>Node4&#45;&gt;Node8</title>
<path fill="none" stroke="midnightblue" d="M411.235,-109.172C380.919,-99.0039 337.93,-84.5852 310.892,-75.5164"/>
<polygon fill="midnightblue" stroke="midnightblue" points="410.395,-112.582 420.989,-112.444 412.621,-105.945 410.395,-112.582"/>
</g>
<!-- Node9 -->
<g id="node9" class="node"><title>Node9</title>
<g id="a_node9"><a xlink:href="a00013.html" target="_top" xlink:title="adc_dac_dma.c">
<polygon fill="white" stroke="black" points="344.5,-56.5 344.5,-75.5 430.5,-75.5 430.5,-56.5 344.5,-56.5"/>
<text text-anchor="middle" x="387.5" y="-63.5" font-family="Helvetica,sans-Serif" font-size="10.00">adc_dac_dma.c</text>
</a>
</g>
</g>
<!-- Node4&#45;&gt;Node9 -->
<g id="edge12" class="edge"><title>Node4&#45;&gt;Node9</title>
<path fill="none" stroke="midnightblue" d="M429.605,-105.537C419.085,-95.9087 405.931,-83.8694 397.152,-75.8339"/>
<polygon fill="midnightblue" stroke="midnightblue" points="427.281,-108.154 437.021,-112.324 432.007,-102.99 427.281,-108.154"/>
</g>
<!-- Node5&#45;&gt;Node3 -->
<g id="edge5" class="edge"><title>Node5&#45;&gt;Node3</title>
<path fill="none" stroke="midnightblue" d="M493.592,-84.6194C501.597,-98.6759 508.881,-118.225 498.5,-132 482.331,-153.455 404.072,-167.804 364.505,-173.811"/>
<polygon fill="midnightblue" stroke="midnightblue" points="496.412,-82.5277 488.143,-75.904 490.477,-86.2386 496.412,-82.5277"/>
</g>
<!-- Node5&#45;&gt;Node4 -->
<g id="edge6" class="edge"><title>Node5&#45;&gt;Node4</title>
<path fill="none" stroke="midnightblue" d="M476.346,-84.8111C471.164,-93.9533 463.796,-104.691 457.446,-112.083"/>
<polygon fill="midnightblue" stroke="midnightblue" points="479.54,-86.2505 480.959,-75.7511 473.302,-83.0741 479.54,-86.2505"/>
</g>
<!-- Node6 -->
<g id="node6" class="node"><title>Node6</title>
<g id="a_node6"><a xlink:href="a00011.html" target="_top" xlink:title="Controlling beam and primary actuators. ">
<polygon fill="white" stroke="black" points="449,-0.5 449,-19.5 514,-19.5 514,-0.5 449,-0.5"/>
<text text-anchor="middle" x="481.5" y="-7.5" font-family="Helvetica,sans-Serif" font-size="10.00">actuators.c</text>
</a>
</g>
</g>
<!-- Node5&#45;&gt;Node6 -->
<g id="edge7" class="edge"><title>Node5&#45;&gt;Node6</title>
<path fill="none" stroke="midnightblue" d="M481.5,-45.8045C481.5,-36.9102 481.5,-26.7798 481.5,-19.7511"/>
<polygon fill="midnightblue" stroke="midnightblue" points="478,-46.083 481.5,-56.083 485,-46.083 478,-46.083"/>
</g>
<!-- Node5&#45;&gt;Node7 -->
<g id="edge8" class="edge"><title>Node5&#45;&gt;Node7</title>
<path fill="none" stroke="midnightblue" d="M438.886,-55.9007C367.539,-41.2609 296.374,-27.3682 252.729,-18.9286"/>
<polygon fill="midnightblue" stroke="midnightblue" points="438.452,-59.3845 448.952,-57.9709 439.862,-52.528 438.452,-59.3845"/>
</g>
<!-- Node8&#45;&gt;Node7 -->
<g id="edge11" class="edge"><title>Node8&#45;&gt;Node7</title>
<path fill="none" stroke="midnightblue" d="M265.466,-50.3804C252.091,-40.6204 234.941,-28.1057 223.606,-19.8339"/>
<polygon fill="midnightblue" stroke="midnightblue" points="263.47,-53.2565 273.611,-56.324 267.596,-47.602 263.47,-53.2565"/>
</g>
</g>
</svg>
